<svg width="405" height="342" viewBox="0 0 405 342" fill="none" xmlns="http://www.w3.org/2000/svg">
<g id="Frame" clip-path="url(#clip0)">
<path id="back-bubble" d="M39.6027 213.585L14.8282 241.357C35.4096 250.087 56.2433 237.967 64.7834 231.891C92.3595 247.044 124.673 251.122 155.149 243.295C185.625 235.467 211.974 216.323 228.835 189.757C245.697 163.191 251.803 131.199 245.912 100.29C240.021 69.3809 222.576 41.8775 197.125 23.3755C171.674 4.87346 140.131 -3.23713 108.912 0.693917C77.6934 4.62496 49.1452 20.3023 29.0758 44.5362C9.00651 68.77 -1.07608 99.7398 0.87951 131.144C2.8351 162.548 16.6819 192.028 39.6027 213.585Z" fill="#C973AA"/>
<path id="Vector" d="M57.6135 103.166C83.172 102.9 108.727 102.443 134.285 102.096C142.805 101.98 151.325 101.879 159.846 101.792C167.188 101.715 167.206 90.299 159.846 90.3756C134.287 90.6418 108.732 91.0987 83.1747 91.4459C74.6545 91.5617 66.1341 91.6631 57.6135 91.7503C50.2719 91.8267 50.2531 103.243 57.6135 103.166Z" fill="white"/>
<path id="Vector_2" d="M57.6135 129.804L160.911 128.734L190.289 128.429C197.631 128.353 197.649 116.937 190.289 117.013L86.9916 118.083L57.6135 118.388C50.2718 118.464 50.2531 129.88 57.6135 129.804Z" fill="white"/>
<path id="Vector_3" d="M57.6135 156.442L160.911 155.371L190.289 155.067C197.631 154.991 197.649 143.575 190.289 143.651L86.9916 144.721L57.6135 145.025C50.2718 145.102 50.2531 156.518 57.6135 156.442Z" fill="white"/>
<path id="front-bubble" d="M404.337 218.272C404.326 191.206 395.424 164.893 379 143.381C362.575 121.868 339.538 106.346 313.432 99.2034C287.326 92.0605 259.596 93.692 234.507 103.847C209.418 114.002 188.36 132.117 174.572 155.408C160.784 178.698 155.029 205.873 158.192 232.754C161.355 259.634 173.261 284.731 192.08 304.184C210.898 323.638 235.586 336.37 262.347 340.424C289.107 344.477 316.458 339.627 340.194 326.619C348.734 332.695 369.567 344.815 390.149 336.085L365.374 308.313C377.69 296.774 387.503 282.827 394.205 267.339C400.908 251.85 404.356 235.149 404.337 218.272Z" fill="#5C5B8B"/>
<path id="Vector_4" d="M217.637 197.894C243.195 197.628 268.75 197.171 294.308 196.824C302.828 196.708 311.348 196.607 319.869 196.52C327.211 196.443 327.229 185.027 319.869 185.104C294.311 185.37 268.755 185.827 243.198 186.174C234.678 186.29 226.157 186.391 217.637 186.478C210.295 186.555 210.276 197.971 217.637 197.894Z" fill="white"/>
<path id="Vector_5" d="M217.637 224.532L320.934 223.462L350.312 223.157C357.654 223.081 357.672 211.665 350.312 211.741L247.015 212.812L217.637 213.116C210.295 213.192 210.276 224.608 217.637 224.532Z" fill="white"/>
<path id="Vector_6" d="M217.637 251.17L320.934 250.099L350.312 249.795C357.654 249.719 357.672 238.303 350.312 238.379L247.015 239.449L217.637 239.754C210.295 239.83 210.276 251.246 217.637 251.17Z" fill="white"/>
</g>
<defs>
<clipPath id="clip0">
<rect width="405" height="342" fill="white"/>
</clipPath>
</defs>
</svg>
